<svg width="295" height="186" viewBox="0 0 295 186" fill="none" xmlns="http://www.w3.org/2000/svg">
<path d="M119 185.559H0V174.559H119V185.559Z" fill="#2B2B2B"/>
<path d="M158.706 174.358C159.639 174.358 160.475 174.532 161.212 174.877C161.959 175.222 162.566 175.722 163.032 176.375C163.508 177.019 163.821 177.779 163.971 178.656H160.652C160.522 178.283 160.293 177.989 159.967 177.774C159.649 177.55 159.28 177.438 158.86 177.438C158.291 177.438 157.829 177.626 157.475 177.999C157.129 178.372 156.956 178.862 156.956 179.469C156.956 180.066 157.129 180.556 157.475 180.938C157.829 181.312 158.282 181.499 158.832 181.499C159.271 181.499 159.654 181.387 159.98 181.163C160.307 180.939 160.541 180.63 160.681 180.238H164.013C163.901 181.106 163.602 181.867 163.116 182.521C162.64 183.174 162.025 183.683 161.269 184.047C160.513 184.402 159.668 184.579 158.734 184.579C157.708 184.579 156.803 184.364 156.019 183.935C155.235 183.505 154.623 182.903 154.185 182.129C153.755 181.354 153.54 180.467 153.54 179.469C153.54 178.47 153.755 177.583 154.185 176.809C154.623 176.034 155.235 175.432 156.019 175.003C156.802 174.574 157.698 174.358 158.706 174.358Z" fill="#2B2B2B"/>
<path d="M179.19 174.358C180.03 174.358 180.759 174.494 181.375 174.765C182 175.035 182.48 175.427 182.816 175.94C182.831 175.961 182.844 175.984 182.857 176.005V174.568H191.93V177.635H189.087V184.369H185.699V177.635H183.345C183.346 177.663 183.348 177.691 183.349 177.719H180.185C180.185 177.411 180.101 177.177 179.933 177.019C179.774 176.851 179.546 176.767 179.247 176.767C178.986 176.767 178.78 176.823 178.631 176.935C178.482 177.047 178.407 177.196 178.407 177.383C178.407 177.607 178.524 177.789 178.757 177.929C179 178.069 179.415 178.195 180.003 178.307C181.225 178.54 182.117 178.904 182.677 179.398C183.246 179.893 183.531 180.561 183.531 181.4C183.531 182.399 183.166 183.178 182.438 183.738C181.71 184.298 180.693 184.579 179.387 184.579C178.052 184.579 177.011 184.28 176.265 183.683C175.527 183.076 175.159 182.231 175.159 181.148H178.393C178.393 181.466 178.477 181.709 178.645 181.877C178.813 182.045 179.056 182.129 179.373 182.129C179.644 182.129 179.854 182.077 180.003 181.975C180.152 181.863 180.227 181.709 180.227 181.513C180.227 181.27 180.096 181.074 179.835 180.925C179.583 180.766 179.177 180.64 178.617 180.547C177.46 180.351 176.605 180.001 176.055 179.497C175.504 178.993 175.229 178.312 175.229 177.453C175.229 176.492 175.579 175.735 176.279 175.185C176.989 174.634 177.959 174.358 179.19 174.358Z" fill="#2B2B2B"/>
<path d="M195.389 180.112C195.389 181.018 195.762 181.471 196.509 181.471C197.255 181.471 197.629 181.018 197.629 180.112V174.568H201.017V180.295C201.017 181.181 200.835 181.947 200.471 182.591C200.116 183.235 199.598 183.729 198.917 184.074C198.236 184.41 197.433 184.579 196.509 184.579C195.585 184.579 194.782 184.41 194.101 184.074C193.429 183.729 192.911 183.235 192.547 182.591C192.192 181.947 192.015 181.181 192.015 180.295V174.568H195.389V180.112Z" fill="#2B2B2B"/>
<path fill-rule="evenodd" clip-rule="evenodd" d="M220.436 174.358C221.499 174.358 222.442 174.578 223.264 175.017C224.085 175.446 224.724 176.048 225.182 176.822C225.639 177.597 225.868 178.479 225.868 179.469C225.868 180.458 225.639 181.34 225.182 182.114C224.724 182.889 224.085 183.496 223.264 183.935C222.442 184.364 221.5 184.579 220.436 184.579C219.381 184.579 218.443 184.364 217.622 183.935C216.801 183.496 216.161 182.889 215.704 182.114C215.247 181.34 215.018 180.458 215.018 179.469C215.018 178.479 215.247 177.597 215.704 176.822C216.161 176.048 216.801 175.446 217.622 175.017C218.443 174.578 219.381 174.358 220.436 174.358ZM220.436 177.438C219.848 177.439 219.367 177.63 218.994 178.013C218.621 178.386 218.434 178.871 218.434 179.469C218.434 180.066 218.621 180.556 218.994 180.938C219.367 181.312 219.848 181.499 220.436 181.499C221.024 181.499 221.505 181.312 221.878 180.938C222.26 180.556 222.452 180.066 222.452 179.469C222.452 178.871 222.261 178.386 221.878 178.013C221.505 177.63 221.024 177.438 220.436 177.438Z" fill="#2B2B2B"/>
<path d="M146.45 177.635H143.608V184.369H140.22V177.635H137.378V174.568H146.45V177.635Z" fill="#2B2B2B"/>
<path d="M153.662 177.074H149.896V178.209H153.298V180.645H149.896V181.82H153.802V184.369H146.605V174.568H153.662V177.074Z" fill="#2B2B2B"/>
<path d="M167.51 177.845H169.806V174.568H173.193V184.369H169.806V180.925H167.51V184.369H164.122V174.568H167.51V177.845Z" fill="#2B2B2B"/>
<path fill-rule="evenodd" clip-rule="evenodd" d="M205.998 174.568C207.071 174.568 208.01 174.77 208.812 175.171C209.624 175.572 210.25 176.146 210.688 176.893C211.136 177.63 211.36 178.489 211.36 179.469C211.36 180.449 211.136 181.312 210.688 182.059C210.25 182.796 209.624 183.365 208.812 183.767C208.01 184.168 207.071 184.369 205.998 184.369H201.588V174.568H205.998ZM204.934 181.387H205.9C206.535 181.387 207.035 181.219 207.398 180.883C207.762 180.538 207.944 180.066 207.944 179.469C207.944 178.871 207.762 178.404 207.398 178.068C207.035 177.723 206.535 177.551 205.9 177.551H204.934V181.387Z" fill="#2B2B2B"/>
<path d="M214.89 184.369H211.501V174.568H214.89V184.369Z" fill="#2B2B2B"/>
<path fill-rule="evenodd" clip-rule="evenodd" d="M41.4551 113.4C46.1882 113.4 50.2883 114.2 53.7549 115.8C57.2882 117.4 59.9878 119.7 61.8545 122.7C63.7878 125.7 64.7549 129.4 64.7549 133.8V165H52.9551L51.3545 157.4C50.6879 158.734 49.8214 159.933 48.7549 161C47.7549 162.067 46.5881 163 45.2549 163.8C43.9216 164.533 42.4215 165.1 40.7549 165.5C39.1549 165.967 37.3545 166.2 35.3545 166.2C31.2214 166.2 27.755 165.533 24.9551 164.2C22.2218 162.8 20.1878 160.967 18.8545 158.7C17.5878 156.367 16.9551 153.8 16.9551 151C16.9551 148 17.7215 145.333 19.2549 143C20.7882 140.667 23.1546 138.833 26.3545 137.5C29.5544 136.167 33.5546 135.5 38.3545 135.5H50.7549C50.7549 133.1 50.4215 131.133 49.7549 129.6C49.1549 128 48.1547 126.8 46.7549 126C45.4215 125.2 43.6212 124.8 41.3545 124.8C38.8879 124.8 36.788 125.334 35.0547 126.4C33.3881 127.467 32.3551 129.067 31.9551 131.2H18.3545C18.7545 127.6 19.9551 124.5 21.9551 121.9C23.9551 119.234 26.6217 117.167 29.9551 115.7C33.355 114.167 37.1885 113.4 41.4551 113.4ZM40.0547 143.9C38.1214 143.9 36.5215 144.167 35.2549 144.7C34.0549 145.167 33.1547 145.867 32.5547 146.8C31.9547 147.666 31.6543 148.667 31.6543 149.8C31.6543 151 31.9547 152.034 32.5547 152.9C33.1547 153.767 33.9882 154.4 35.0547 154.8C36.1214 155.2 37.3549 155.4 38.7549 155.4C40.4215 155.4 41.9216 155.133 43.2549 154.6C44.5881 154 45.721 153.166 46.6543 152.1C47.5876 151.033 48.3551 149.833 48.9551 148.5C49.555 147.1 49.9543 145.6 50.1543 144V143.9H40.0547Z" fill="#2B2B2B"/>
<path fill-rule="evenodd" clip-rule="evenodd" d="M82.5391 121.5C84.0724 119.167 86.1393 117.234 88.7393 115.7C91.4059 114.167 94.6724 113.4 98.5391 113.4C103.139 113.4 107.239 114.567 110.839 116.9C114.506 119.167 117.373 122.3 119.439 126.3C121.573 130.233 122.639 134.767 122.639 139.9C122.639 144.9 121.573 149.4 119.439 153.4C117.373 157.4 114.539 160.533 110.939 162.8C107.339 165.066 103.239 166.2 98.6387 166.2C96.0389 166.2 93.7391 165.867 91.7393 165.2C89.7393 164.6 87.9728 163.733 86.4395 162.6C84.9062 161.466 83.6057 160.167 82.5391 158.7L80.9395 165H68.5391V93H82.5391V121.5ZM95.2393 125.6C92.6393 125.6 90.3389 126.233 88.3389 127.5C86.4056 128.7 84.8726 130.367 83.7393 132.5C82.606 134.567 82.0391 137 82.0391 139.8C82.0391 142.6 82.6059 145.067 83.7393 147.2C84.8726 149.333 86.4056 151 88.3389 152.2C90.3389 153.4 92.6393 154 95.2393 154C97.7725 154 100.039 153.4 102.039 152.2C104.039 151 105.606 149.333 106.739 147.2C107.873 145.067 108.439 142.634 108.439 139.9C108.439 137.1 107.873 134.633 106.739 132.5C105.606 130.367 104.039 128.7 102.039 127.5C100.039 126.233 97.7725 125.6 95.2393 125.6Z" fill="#2B2B2B"/>
<path d="M144.959 113.4C151.092 113.4 155.926 114.8 159.459 117.6C163.059 120.333 165.193 124.067 165.859 128.8H152.659C152.326 127.333 151.492 126.2 150.159 125.4C148.826 124.6 147.059 124.2 144.859 124.2C142.593 124.2 140.826 124.6 139.56 125.4C138.36 126.2 137.76 127.266 137.76 128.6C137.76 129.466 138.159 130.267 138.959 131C139.759 131.667 140.893 132.266 142.359 132.8C143.893 133.266 145.759 133.734 147.959 134.2C151.892 135 155.326 135.933 158.26 137C161.193 138 163.493 139.467 165.159 141.4C166.826 143.267 167.659 146 167.659 149.6C167.726 152.8 166.86 155.667 165.06 158.2C163.326 160.734 160.859 162.7 157.659 164.1C154.459 165.5 150.66 166.2 146.26 166.2C141.593 166.2 137.559 165.467 134.159 164C130.759 162.467 128.092 160.434 126.159 157.9C124.226 155.3 123.093 152.366 122.76 149.1H136.76C137.026 150.3 137.526 151.4 138.26 152.4C139.06 153.334 140.093 154.1 141.359 154.7C142.693 155.3 144.26 155.6 146.06 155.6C147.793 155.6 149.193 155.367 150.26 154.9C151.393 154.367 152.226 153.7 152.76 152.9C153.36 152.1 153.659 151.233 153.659 150.3C153.659 148.967 153.259 147.933 152.459 147.2C151.659 146.467 150.492 145.867 148.959 145.4C147.426 144.934 145.592 144.5 143.459 144.1C141.059 143.566 138.693 142.966 136.359 142.3C134.093 141.633 132.026 140.767 130.159 139.7C128.359 138.567 126.926 137.167 125.859 135.5C124.793 133.833 124.26 131.766 124.26 129.3C124.26 126.3 125.059 123.6 126.659 121.2C128.326 118.8 130.693 116.9 133.76 115.5C136.893 114.1 140.626 113.4 144.959 113.4Z" fill="#2B2B2B"/>
<path d="M176.575 149.5C179.108 149.5 181.175 150.267 182.775 151.8C184.375 153.333 185.175 155.233 185.175 157.5C185.175 159.7 184.375 161.6 182.775 163.2C181.175 164.733 179.108 165.5 176.575 165.5C174.042 165.5 171.975 164.733 170.375 163.2C168.775 161.6 167.975 159.7 167.975 157.5C167.975 155.233 168.775 153.333 170.375 151.8C171.975 150.267 174.042 149.5 176.575 149.5Z" fill="#2B2B2B"/>
<path d="M14.0059 165H0.00585938V93H14.0059V165Z" fill="#2B2B2B"/>
<path fill-rule="evenodd" clip-rule="evenodd" d="M109.835 20.4004C114.702 20.4004 119.069 21.5331 122.936 23.7998C126.802 25.9997 129.835 29.0998 132.035 33.0996C134.302 37.0329 135.436 41.5999 135.436 46.7998C135.436 51.9997 134.302 56.5997 132.035 60.5996C129.768 64.5329 126.702 67.6337 122.835 69.9004C119.035 72.1002 114.668 73.2002 109.735 73.2002C104.935 73.2002 100.602 72.1003 96.7354 69.9004C92.8687 67.6337 89.8018 64.5 87.5352 60.5C85.3352 56.5001 84.2354 51.9669 84.2354 46.9004C84.2354 41.7004 85.3352 37.0996 87.5352 33.0996C89.8018 29.0998 92.8688 25.9998 96.7354 23.7998C100.602 21.5333 104.968 20.4004 109.835 20.4004ZM109.835 32.5C107.768 32.5 105.868 33.033 104.135 34.0996C102.401 35.1663 101.035 36.7671 100.035 38.9004C99.0353 41.0336 98.5352 43.6667 98.5352 46.7998C98.5352 49.9331 99.0352 52.5669 100.035 54.7002C101.035 56.8334 102.369 58.4334 104.035 59.5C105.768 60.5667 107.669 61.0996 109.735 61.0996C111.935 61.0996 113.869 60.5666 115.535 59.5C117.202 58.4334 118.535 56.8334 119.535 54.7002C120.602 52.5669 121.135 49.9331 121.135 46.7998C121.135 43.6666 120.635 41.0336 119.635 38.9004C118.635 36.7671 117.268 35.1663 115.535 34.0996C113.869 33.033 111.968 32.5 109.835 32.5Z" fill="#2B2B2B"/>
<path fill-rule="evenodd" clip-rule="evenodd" d="M214.675 20.4004C219.408 20.4004 223.508 21.1999 226.975 22.7998C230.508 24.3998 233.209 26.7002 235.075 29.7002C237.008 32.7001 237.975 36.4 237.975 40.7998V72H226.175L224.575 64.4004C223.909 65.7336 223.041 66.9334 221.975 68C220.975 69.0666 219.808 69.9999 218.475 70.7998C217.141 71.5331 215.641 72.1 213.975 72.5C212.375 72.9666 210.575 73.2002 208.575 73.2002C204.442 73.2002 200.975 72.5335 198.175 71.2002C195.442 69.8002 193.409 67.9667 192.075 65.7002C190.809 63.3669 190.175 60.8 190.175 58C190.175 55.0001 190.941 52.3333 192.475 50C194.008 47.6667 196.375 45.8333 199.575 44.5C202.775 43.1667 206.775 42.5 211.575 42.5H223.975C223.975 40.1 223.641 38.1329 222.975 36.5996C222.375 34.9998 221.374 33.7999 219.975 33C218.641 32.2001 216.842 31.7998 214.575 31.7998C212.109 31.7998 210.009 32.3338 208.275 33.4004C206.609 34.4671 205.575 36.0669 205.175 38.2002H191.575C191.975 34.6004 193.175 31.5003 195.175 28.9004C197.175 26.2338 199.842 24.1669 203.175 22.7002C206.575 21.1669 210.408 20.4004 214.675 20.4004ZM213.275 50.9004C211.342 50.9004 209.741 51.1669 208.475 51.7002C207.275 52.1668 206.375 52.8667 205.775 53.7998C205.175 54.6664 204.875 55.6666 204.875 56.7998C204.875 57.9998 205.175 59.0337 205.775 59.9004C206.375 60.7668 207.209 61.3999 208.275 61.7998C209.342 62.1997 210.575 62.4004 211.975 62.4004C213.641 62.4004 215.141 62.1329 216.475 61.5996C217.808 60.9996 218.942 60.1663 219.875 59.0996C220.808 58.033 221.575 56.8332 222.175 55.5C222.775 54.1 223.175 52.6 223.375 51V50.9004H213.275Z" fill="#2B2B2B"/>
<path fill-rule="evenodd" clip-rule="evenodd" d="M294.359 72H281.859L280.359 65.2002C279.359 66.6001 278.126 67.9336 276.659 69.2002C275.193 70.4001 273.426 71.3663 271.359 72.0996C269.293 72.8329 266.893 73.2002 264.159 73.2002C259.559 73.2002 255.459 72.0664 251.859 69.7998C248.26 67.5332 245.393 64.4001 243.26 60.4004C241.193 56.4005 240.159 51.9002 240.159 46.9004C240.159 41.7671 241.193 37.2331 243.26 33.2998C245.393 29.3001 248.293 26.167 251.959 23.9004C255.692 21.5671 259.859 20.4005 264.459 20.4004C268.059 20.4004 271.193 21.0671 273.859 22.4004C276.526 23.6671 278.693 25.5004 280.359 27.9004V0H294.359V72ZM267.56 32.5996C265.026 32.5996 262.76 33.2004 260.76 34.4004C258.76 35.6004 257.193 37.2671 256.06 39.4004C254.993 41.5337 254.459 43.967 254.459 46.7002C254.459 49.5001 254.993 52.0002 256.06 54.2002C257.193 56.3334 258.76 58.0002 260.76 59.2002C262.76 60.4 265.026 61 267.56 61C270.159 61 272.459 60.4 274.459 59.2002C276.459 58.0002 277.993 56.3335 279.06 54.2002C280.193 52.0669 280.76 49.5998 280.76 46.7998C280.76 44.0001 280.193 41.5336 279.06 39.4004C277.993 37.2671 276.459 35.6004 274.459 34.4004C272.459 33.2005 270.159 32.5996 267.56 32.5996Z" fill="#2B2B2B"/>
<path d="M62.0059 20.4004C66.4056 20.4004 70.0726 21.2998 73.0059 23.0996C75.9392 24.8329 78.1398 27.3999 79.6064 30.7998C81.1397 34.133 81.9062 38.2331 81.9062 43.0996V72H68.0059V44.2998C68.0058 40.4333 67.2393 37.467 65.7061 35.4004C64.1728 33.2671 61.8063 32.2002 58.6064 32.2002C56.4731 32.2002 54.6059 32.7331 53.0059 33.7998C51.406 34.7998 50.1393 36.2669 49.2061 38.2002C48.3395 40.1335 47.9062 42.467 47.9062 45.2002V72H34.0059V44.2998C34.0058 40.4333 33.2393 37.467 31.7061 35.4004C30.1727 33.2671 27.7396 32.2002 24.4062 32.2002C22.4062 32.2002 20.6059 32.7331 19.0059 33.7998C17.406 34.7998 16.1733 36.2669 15.3066 38.2002C14.44 40.1335 14.0059 42.4669 14.0059 45.2002V72H0.00585938V21.5996H12.3066L13.4062 28.2998C15.0062 25.8999 17.1061 23.9996 19.7061 22.5996C22.3727 21.1329 25.4396 20.4004 28.9062 20.4004C31.3729 20.4004 33.6064 20.7337 35.6064 21.4004C37.6063 22.067 39.373 23.0332 40.9062 24.2998C42.5062 25.5665 43.8066 27.1333 44.8066 29C46.7399 26.3335 49.2062 24.2335 52.2061 22.7002C55.2059 21.1669 58.4727 20.4004 62.0059 20.4004Z" fill="#2B2B2B"/>
<path d="M168.365 20.4004C172.498 20.4004 175.999 21.2998 178.865 23.0996C181.732 24.8329 183.899 27.3669 185.365 30.7002C186.899 34.0335 187.666 38.1333 187.666 43V72H173.766V44.2998C173.766 40.4334 172.932 37.467 171.266 35.4004C169.666 33.2671 167.099 32.2002 163.565 32.2002C161.432 32.2002 159.499 32.7332 157.766 33.7998C156.032 34.7998 154.666 36.2669 153.666 38.2002C152.733 40.0668 152.266 42.3664 152.266 45.0996V72H138.266V21.5996H150.565L151.565 29.7998C153.099 26.9999 155.266 24.7333 158.065 23C160.932 21.2667 164.365 20.4004 168.365 20.4004Z" fill="#2B2B2B"/>
</svg>
